<svg viewBox="0 0 64 64" xml:space="preserve" xmlns="http://www.w3.org/2000/svg" enable-background="new 0 0 64 64"><path d="M53 5V3h-8.551C43.308 1.723 41.713 1 40 1s-3.308.723-4.449 2H27v2H17v19H1v11c0 3.862 1.462 6.842 4.14 8.5C2.461 45.158 1 48.138 1 52v11h62V5H53zM23 52V11h4v2h26v-2h4v46H23v-5zm-2-6.549a8.065 8.065 0 0 0-2.141-1.951A8.08 8.08 0 0 0 21 41.549v3.902zM29 5h7.521l.3-.397C37.59 3.584 38.749 3 40 3s2.41.584 3.18 1.603l.299.397H51v6H29V5zM19 7h8v2h-6v15h-2V7zm2 19v2H3v-2h18zM6.842 44.848c.528-.252.856-.768.856-1.348s-.328-1.096-.856-1.348C3.666 40.644 3 37.43 3 35v-5h18v5c0 2.459-.682 5.703-3.93 7.193-.519.238-.842.739-.842 1.307s.323 1.068.843 1.308C20.318 46.297 21 49.541 21 52v5h-.191c-.625-2.694-3.024-11-8.809-11s-8.184 8.306-8.809 11H3v-5c0-2.43.666-5.644 3.842-7.152zM18.757 57H5.243c.825-3.293 3.029-9 6.757-9s5.931 5.707 6.757 9zM17 61H3v-2h18v2h-4zm44 0H23v-2h36V9h-6V7h8v54z" fill="#ffffff" class="fill-3f3a34"></path><path d="M25 53h26v2H25zM53 53h2v2h-2zM31 49h24v2H31zM25 49h4v2h-4zM25 45h30v2H25zM29 41h26v2H29zM25 41h2v2h-2zM25 37h30v2H25zM31 22h-6v13h6V22zm-2 11h-2v-9h2v9zM39 19h-6v16h6V19zm-2 14h-2V21h2v12zM47 17h-6v18h6V17zm-2 16h-2V19h2v14zM49 35h6V15h-6v20zm2-18h2v16h-2V17zM13 50h2v2h-2zM9 53h2v2H9z" fill="#ffffff" class="fill-3f3a34"></path></svg>