<svg viewBox="0 0 512 512" xmlns="http://www.w3.org/2000/svg"><path d="M456.59 74.368a86.939 86.939 0 0 0-132.221 112.006l56.833 79.562a17.1 17.1 0 0 0 27.832 0l56.833-79.563a86.666 86.666 0 0 0-9.277-112.005Zm-61.472 89.977a28.5 28.5 0 1 1 28.5-28.5 28.501 28.501 0 0 1-28.5 28.5ZM395.118 314.902A17.096 17.096 0 0 0 378.02 332v36.46a60.442 60.442 0 1 1-120.884 0V213.38a94.638 94.638 0 1 0-189.276 0V294a17.098 17.098 0 0 0 34.196 0v-80.62a60.442 60.442 0 1 1 120.884 0v155.08a94.638 94.638 0 0 0 189.276 0V332a17.096 17.096 0 0 0-17.098-17.098ZM84.958 352.902A55.098 55.098 0 1 0 140.056 408a55.158 55.158 0 0 0-55.098-55.098Z" fill="#ffffff" class="fill-000000"></path></svg>