<svg viewBox="0 0 512 512" xmlns="http://www.w3.org/2000/svg"><path d="M316.94 380.029c-16.404-6.268-38.046-9.72-60.94-9.72s-44.535 3.452-60.94 9.72c-18.832 7.195-29.204 17.73-29.204 29.665s10.371 22.47 29.204 29.666c16.404 6.268 38.046 9.72 60.94 9.72s44.535-3.452 60.94-9.72c18.833-7.195 29.204-17.731 29.204-29.666s-10.373-22.47-29.204-29.665ZM251.014 357.877a8 8 0 0 0 9.972 0 239.442 239.442 0 0 0 90.732-188.176c0-6.41-.255-12.88-.759-19.227-2.143-27.072-13.353-49.775-32.417-65.654-16.955-14.122-39.166-21.9-62.542-21.9s-45.587 7.778-62.542 21.9c-19.065 15.88-30.274 38.583-32.417 65.653a244.044 244.044 0 0 0-.759 19.228 239.442 239.442 0 0 0 90.732 188.176Zm-74.024-206.14c1.795-22.677 11.03-41.566 26.708-54.623C217.784 85.382 236.358 78.92 256 78.92s38.216 6.461 52.302 18.193c15.677 13.058 24.913 31.947 26.708 54.624.47 5.93.708 11.974.708 17.964A223.443 223.443 0 0 1 256 341.276 223.443 223.443 0 0 1 176.282 169.7c0-5.99.238-12.034.708-17.964Z" fill="#ffffff" class="fill-000000"></path><circle cx="256" cy="162.832" r="41.607" fill="#ffffff" class="fill-000000"></circle></svg>