<svg viewBox="0 0 32 32" xmlns="http://www.w3.org/2000/svg"><g data-name="59-phone"><path d="M25 16V3a2 2 0 0 0-2-2H9a2 2 0 0 0-2 2v26a2 2 0 0 0 2 2h6" fill="none" stroke="#ffffff" stroke-linecap="round" stroke-linejoin="round" stroke-width="2px" class="stroke-000000"></path><path d="M20 1v2a2 2 0 0 1-2 2h-4a2 2 0 0 1-2-2V1M19 19a12 12 0 0 1 12 12M19 24a7 7 0 0 1 7 7M19 29a2 2 0 0 1 2 2" fill="none" stroke="#ffffff" stroke-linecap="round" stroke-linejoin="round" stroke-width="2px" class="stroke-000000"></path></g></svg>