<svg xmlns="http://www.w3.org/2000/svg" width="109" height="41" viewBox="0 0 109 41" version="1.1"><path d="M 28.861 4.107 C 27.729 4.824, 27.739 4.972, 28.921 4.985 C 31.875 5.017, 33.949 8.536, 39.089 22.237 C 42.001 29.999, 44.539 35.882, 44.730 35.309 C 44.921 34.737, 44.183 32.001, 43.090 29.229 C 41.998 26.457, 40.371 21.361, 39.475 17.905 C 36.522 6.506, 32.770 1.630, 28.861 4.107 M 51.082 3.949 C 50.362 4.394, 50.885 5.082, 52.504 5.820 C 55.287 7.088, 56.540 9.602, 62.535 25.948 C 64.643 31.695, 66.539 35.882, 66.749 35.254 C 66.958 34.625, 66.696 33.298, 66.165 32.305 C 65.635 31.312, 63.774 25.598, 62.029 19.606 C 60.285 13.614, 58.194 7.699, 57.382 6.460 C 55.769 3.998, 52.872 2.843, 51.082 3.949 M 73.457 4.863 C 69.277 7.412, 65.302 12.348, 64.504 15.980 C 63.652 19.863, 67.248 30.948, 70.284 33.791 C 75.230 38.424, 82.792 39.247, 89.698 35.904 C 101.689 30.100, 102.153 11.898, 90.480 5.287 C 85.434 2.429, 77.762 2.238, 73.457 4.863 M 84.421 13.219 C 84.473 14.678, 83.816 15.571, 82.500 15.826 C 79.460 16.417, 78 17.990, 78 20.673 C 78 22.504, 78.862 23.462, 81.500 24.564 C 85.299 26.152, 85.765 27.120, 83.596 28.921 C 80.276 31.676, 73.954 27.292, 72.172 21 L 71.180 17.500 71.090 20.850 C 71.022 23.396, 71.816 25.016, 74.400 27.600 C 79.130 32.330, 83.870 32.330, 88.600 27.600 C 92.930 23.270, 93.210 18.592, 89.411 14.077 C 86.367 10.459, 84.309 10.105, 84.421 13.219 M 15.632 31.115 C 13.436 34.251, 14.961 37.425, 18.851 37.813 C 21.364 38.064, 22.206 37.642, 23.096 35.689 C 25.533 30.339, 18.986 26.327, 15.632 31.115" stroke="none" fill="#f1d65f" fill-rule="evenodd"/><path d="M 26.420 2.145 C 23.377 3.621, 21.505 7.356, 18.472 18.005 C 16.984 23.227, 15.144 28.210, 14.384 29.079 C 12.424 31.314, 12.668 36.390, 14.829 38.345 C 17.455 40.722, 22.243 40.435, 24.762 37.750 C 25.923 36.513, 27.712 33.524, 28.736 31.109 L 30.599 26.719 31.794 30.708 C 33.508 36.427, 37.145 40.007, 41.202 39.968 C 45.743 39.924, 47.784 38.082, 50.387 31.676 L 52.618 26.186 53.909 30.556 C 55.638 36.412, 59.330 40, 63.628 40 C 65.827 40, 67.387 39.353, 68.156 38.122 C 69.300 36.290, 69.427 36.290, 73.414 38.100 C 81.746 41.885, 91.353 39.308, 97.442 31.657 C 100.216 28.171, 100.500 27.144, 100.500 20.584 C 100.500 14.583, 100.090 12.755, 98.090 9.837 C 89.576 -2.589, 71.238 -1.689, 64.208 11.499 C 63.240 13.313, 62.959 13.070, 61.157 8.865 C 58.990 3.812, 55.822 1, 52.293 1 C 49.053 1, 44.349 5.798, 42.752 10.733 L 41.383 14.965 39.588 9.974 C 36.840 2.334, 31.983 -0.555, 26.420 2.145 M 28.861 4.107 C 27.729 4.824, 27.739 4.972, 28.921 4.985 C 31.875 5.017, 33.949 8.536, 39.089 22.237 C 42.001 29.999, 44.539 35.882, 44.730 35.309 C 44.921 34.737, 44.183 32.001, 43.090 29.229 C 41.998 26.457, 40.371 21.361, 39.475 17.905 C 36.522 6.506, 32.770 1.630, 28.861 4.107 M 51.082 3.949 C 50.362 4.394, 50.885 5.082, 52.504 5.820 C 55.287 7.088, 56.540 9.602, 62.535 25.948 C 64.643 31.695, 66.539 35.882, 66.749 35.254 C 66.958 34.625, 66.696 33.298, 66.165 32.305 C 65.635 31.312, 63.774 25.598, 62.029 19.606 C 60.285 13.614, 58.194 7.699, 57.382 6.460 C 55.769 3.998, 52.872 2.843, 51.082 3.949 M 73.457 4.863 C 69.277 7.412, 65.302 12.348, 64.504 15.980 C 63.652 19.863, 67.248 30.948, 70.284 33.791 C 75.230 38.424, 82.792 39.247, 89.698 35.904 C 101.689 30.100, 102.153 11.898, 90.480 5.287 C 85.434 2.429, 77.762 2.238, 73.457 4.863 M 84.421 13.219 C 84.473 14.678, 83.816 15.571, 82.500 15.826 C 79.460 16.417, 78 17.990, 78 20.673 C 78 22.504, 78.862 23.462, 81.500 24.564 C 85.299 26.152, 85.765 27.120, 83.596 28.921 C 80.276 31.676, 73.954 27.292, 72.172 21 L 71.180 17.500 71.090 20.850 C 71.022 23.396, 71.816 25.016, 74.400 27.600 C 79.130 32.330, 83.870 32.330, 88.600 27.600 C 92.930 23.270, 93.210 18.592, 89.411 14.077 C 86.367 10.459, 84.309 10.105, 84.421 13.219 M 102.465 19.982 L 102.431 25.962 105.215 23.294 C 106.747 21.826, 108 20.113, 108 19.487 C 108 18.429, 103.910 13.999, 102.936 14.001 C 102.696 14.002, 102.484 16.693, 102.465 19.982 M 15.632 31.115 C 13.436 34.251, 14.961 37.425, 18.851 37.813 C 21.364 38.064, 22.206 37.642, 23.096 35.689 C 25.533 30.339, 18.986 26.327, 15.632 31.115" stroke="none" fill="#1580bf" fill-rule="evenodd"/></svg>